# xmcd
#
# Track frame offsets:
#	150
#	13739
#	33615
#	50025
#	63555
#	75943
#	94769
#	107519
#	134934
#	156252
#	168899
#	180613
#	194186
#	207123
#	219404
#	236657
#	255422
#	274277
#	292054
#
# Disc length: 4142
#
# Revision: 1
# Processed by: cddbd v1.5.1PL0 Copyright (c) Steve Scherf et al.
# Submitted via: CDex 1.40Beta6
# Normalized: r0:DSWAP,TDELIM( - )
#
DISCID=20102c13
DTITLE=Various Artist - Pure Blues
DYEAR=1999
DGENRE=Blues
TTITLE0=Moby - Natural Blues
TTITLE1=E.Clapton/B.B.King - Worried Life Blues
TTITLE2=S.R.Vaughan and Double Trouble - Pride and Joy
TTITLE3=J.L.Hooker - 1 Bourbon 1 Scotch 1 Beer
TTITLE4=Albert King - Born Under A Bad Sign
TTITLE5=Jonny Lang - Good Morning Little Schoolgirl
TTITLE6=Muddy Waters - Hoochie Coochie Man
TTITLE7=Kenny Wayne Sheppard - Shame Shame Shame
TTITLE8=Susan Tedeschi - Just Won't Burn
TTITLE9=Big Mama Thornton - Hound Dog
TTITLE10=Bobby "Blue" Bland - Turn on Your Love Light
TTITLE11=Koko Taylor - Wang Dang Doodle
TTITLE12=Buddy Guy - Let Me Love You Baby
TTITLE13=Howlin' Wolf - Spoonful
TTITLE14=E.Clapton and Duane Allman - Mean Old World
TTITLE15=Luther Alison - Little Red Rooster
TTITLE16=U2 and B.B.King - When Love Comes To Town
TTITLE17=Double Trouble - Groundhog Day
TTITLE18=A3 - Woke Up This Morning (Chosen One Mix)
EXTD=
EXTT0=
EXTT1=
EXTT2=
EXTT3=
EXTT4=
EXTT5=
EXTT6=
EXTT7=
EXTT8=
EXTT9=
EXTT10=
EXTT11=
EXTT12=
EXTT13=
EXTT14=
EXTT15=
EXTT16=
EXTT17=
EXTT18=
PLAYORDER=
